<svg width="142" height="41" viewBox="0 0 142 41" fill="none" xmlns="http://www.w3.org/2000/svg">
<path d="M44.0312 33.6169C43.8729 33.6169 43.7332 33.5617 43.6122 33.4512C43.5004 33.3314 43.4446 33.1933 43.4446 33.0367V18.0703C43.4446 17.9045 43.5004 17.7663 43.6122 17.6558C43.7332 17.5453 43.8729 17.49 44.0312 17.49H47.1503C47.3179 17.49 47.4576 17.5453 47.5693 17.6558C47.6903 17.7663 47.7555 17.9045 47.7555 18.0703V33.0367C47.7555 33.2025 47.6903 33.3406 47.5693 33.4512C47.4576 33.5617 47.3179 33.6169 47.1503 33.6169H44.0312ZM51.3216 33.6169C51.154 33.6169 51.0143 33.5617 50.9026 33.4512C50.7909 33.3406 50.735 33.2025 50.735 33.0367V22.2148C50.735 22.049 50.7909 21.9109 50.9026 21.8004C51.0143 21.6898 51.154 21.6346 51.3216 21.6346H54.0031C54.1707 21.6346 54.3104 21.6898 54.4221 21.8004C54.5431 21.9109 54.6083 22.049 54.6083 22.2148V23.0898C55.0273 22.5832 55.558 22.178 56.2098 21.874C56.8802 21.5701 57.625 21.4135 58.463 21.4135C59.8317 21.4135 60.9397 21.874 61.7963 22.795C62.6529 23.6976 63.0812 24.9778 63.0812 26.6172V33.0459C63.0812 33.2025 63.0253 33.3406 62.9136 33.4604C62.8019 33.5709 62.6622 33.6261 62.4946 33.6261H59.5617C59.4034 33.6261 59.2637 33.5709 59.1427 33.4604C59.031 33.3406 58.9751 33.2025 58.9751 33.0459V26.7646C58.9751 26.0462 58.7982 25.4936 58.4351 25.1068C58.0813 24.7108 57.5692 24.5081 56.8988 24.5081C56.247 24.5081 55.7349 24.7108 55.3625 25.1068C54.9901 25.4936 54.8038 26.0462 54.8038 26.7646V33.0459C54.8038 33.2025 54.748 33.3406 54.6362 33.4604C54.5245 33.5709 54.3848 33.6261 54.2172 33.6261H51.3216V33.6169ZM71.7496 33.6169C68.5374 33.6169 66.9266 32.1065 66.9266 29.0856V24.6647H65.111C64.9434 24.6647 64.7944 24.6094 64.664 24.4989C64.5523 24.3884 64.4964 24.2502 64.4964 24.0845V22.2148C64.4964 22.049 64.5523 21.9109 64.664 21.8004C64.7851 21.6898 64.9341 21.6346 65.111 21.6346H66.9266V17.84C66.9266 17.6742 66.9824 17.5361 67.0942 17.4255C67.2152 17.315 67.3549 17.2598 67.5132 17.2598H70.2133C70.3809 17.2598 70.5206 17.315 70.6323 17.4255C70.744 17.5361 70.7999 17.6742 70.7999 17.84V21.6438H73.7049C73.8725 21.6438 74.0121 21.699 74.1239 21.8096C74.2449 21.9201 74.3101 22.0582 74.3101 22.224V24.0937C74.3101 24.2595 74.2449 24.3976 74.1239 24.5081C74.0121 24.6187 73.8725 24.6739 73.7049 24.6739H70.7999V28.7724C70.7999 29.9053 71.2468 30.4763 72.122 30.4763H73.9097C74.0773 30.4763 74.217 30.5315 74.3287 30.6421C74.4404 30.7526 74.4963 30.8907 74.4963 31.0565V33.0643C74.4963 33.2209 74.4404 33.3591 74.3287 33.4788C74.217 33.5893 74.0773 33.6446 73.9097 33.6446H71.7496V33.6169ZM82.0102 33.8472C80.148 33.8472 78.6769 33.3498 77.6155 32.3552C76.554 31.3605 75.9861 29.9053 75.9395 28.008V27.1975C76.0047 25.3831 76.5726 23.9739 77.6341 22.9608C78.7234 21.9293 80.1666 21.4135 81.9916 21.4135C83.3137 21.4135 84.4217 21.6806 85.3249 22.224C86.2373 22.749 86.9263 23.4674 87.3732 24.3884C87.8388 25.3094 88.0716 26.3686 88.0716 27.5659V28.1185C88.0716 28.2751 88.0157 28.4132 87.904 28.533C87.7922 28.6435 87.6526 28.6987 87.485 28.6987H80.0363V28.8645C80.0642 29.5829 80.2411 30.1724 80.5763 30.6144C80.9115 31.0565 81.377 31.2776 81.9916 31.2776C82.3826 31.2776 82.6992 31.2039 82.9413 31.0473C83.1927 30.8815 83.4161 30.6789 83.6117 30.4487C83.7513 30.2829 83.863 30.1816 83.9375 30.1539C84.0306 30.1079 84.1703 30.0803 84.3565 30.0803H87.2429C87.3826 30.0803 87.5036 30.1263 87.5967 30.2184C87.7084 30.2921 87.7643 30.4026 87.7643 30.5408C87.7643 30.9368 87.5315 31.3973 87.066 31.9223C86.6191 32.4473 85.958 32.8985 85.0921 33.2854C84.2169 33.6538 83.1927 33.8472 82.0102 33.8472ZM83.9655 26.4054V26.3594C83.9655 25.6041 83.7886 25.0147 83.4254 24.591C83.0809 24.1489 82.6061 23.9279 81.9823 23.9279C81.377 23.9279 80.8929 24.1489 80.5391 24.591C80.1946 25.0239 80.027 25.6133 80.027 26.3594V26.4054H83.9655ZM90.8276 33.6169C90.66 33.6169 90.5203 33.5617 90.4086 33.4512C90.2969 33.3406 90.241 33.2025 90.241 33.0367V22.2148C90.241 22.049 90.2969 21.9109 90.4086 21.8004C90.5203 21.6898 90.66 21.6346 90.8276 21.6346H93.5091C93.6767 21.6346 93.8164 21.699 93.9281 21.8188C94.0491 21.9293 94.1143 22.0582 94.1143 22.2056V23.1266C94.9709 22.1319 96.1162 21.6346 97.5593 21.6346H98.5835C98.7511 21.6346 98.8908 21.6898 99.0025 21.8004C99.1143 21.9109 99.1701 22.049 99.1701 22.2148V24.591C99.1701 24.7476 99.1143 24.8857 99.0025 25.0055C98.8908 25.116 98.7511 25.1713 98.5835 25.1713H96.3303C95.6972 25.1713 95.1944 25.3463 94.8406 25.7054C94.4961 26.0462 94.3285 26.5251 94.3285 27.1606V33.0551C94.3285 33.2209 94.2633 33.3591 94.1422 33.4696C94.0305 33.5801 93.8909 33.6354 93.7233 33.6354H90.8276V33.6169ZM106.265 33.8472C104.515 33.8472 103.09 33.3867 102.001 32.4657C100.911 31.5262 100.334 30.2368 100.25 28.579L100.232 27.658L100.25 26.7186C100.315 25.0607 100.883 23.7621 101.973 22.8227C103.071 21.8832 104.505 21.4227 106.256 21.4227C107.578 21.4227 108.686 21.6622 109.589 22.1411C110.501 22.6016 111.181 23.1635 111.619 23.8266C112.066 24.4713 112.308 25.0607 112.345 25.5949C112.364 25.7515 112.308 25.8896 112.177 26.0094C112.066 26.1199 111.926 26.1752 111.758 26.1752H108.798C108.63 26.1752 108.5 26.1383 108.406 26.0646C108.313 25.991 108.23 25.8712 108.146 25.7147C107.96 25.2357 107.717 24.9042 107.42 24.7015C107.14 24.4989 106.777 24.4068 106.321 24.4068C105.045 24.4068 104.384 25.2173 104.347 26.8475L104.328 27.7225L104.347 28.4777C104.375 29.3066 104.552 29.9237 104.887 30.3197C105.231 30.7065 105.706 30.8907 106.33 30.8907C106.814 30.8907 107.187 30.7894 107.466 30.596C107.745 30.4026 107.969 30.0618 108.136 29.5829C108.211 29.4263 108.304 29.3158 108.397 29.2329C108.49 29.15 108.621 29.1224 108.788 29.1224H111.749C111.907 29.1224 112.038 29.1777 112.14 29.2882C112.261 29.3803 112.326 29.5 112.326 29.6566C112.326 30.1447 112.112 30.725 111.675 31.3881C111.256 32.0512 110.585 32.6315 109.673 33.138C108.77 33.5985 107.634 33.8472 106.265 33.8472ZM120.017 33.8472C118.155 33.8472 116.684 33.3498 115.622 32.3552C114.561 31.3605 113.993 29.9053 113.946 28.008V27.1975C114.012 25.3831 114.58 23.9739 115.641 22.9608C116.73 21.9293 118.174 21.4135 119.999 21.4135C121.321 21.4135 122.429 21.6806 123.332 22.224C124.244 22.749 124.933 23.4674 125.38 24.3884C125.846 25.3094 126.079 26.3686 126.079 27.5659V28.1185C126.079 28.2751 126.023 28.4132 125.911 28.533C125.799 28.6435 125.66 28.6987 125.492 28.6987H118.043V28.8645C118.071 29.5829 118.248 30.1724 118.583 30.6144C118.918 31.0565 119.384 31.2776 119.999 31.2776C120.39 31.2776 120.706 31.2039 120.948 31.0473C121.2 30.8815 121.423 30.6789 121.619 30.4487C121.758 30.2829 121.87 30.1816 121.944 30.1539C122.038 30.1079 122.177 30.0803 122.363 30.0803H125.25C125.39 30.0803 125.511 30.1263 125.604 30.2184C125.715 30.2921 125.771 30.4026 125.771 30.5408C125.771 30.9368 125.538 31.3973 125.073 31.9223C124.626 32.4473 123.965 32.8985 123.099 33.2854C122.224 33.6538 121.2 33.8472 120.017 33.8472ZM121.972 26.4054V26.3594C121.972 25.6041 121.796 25.0147 121.432 24.591C121.088 24.1489 120.613 23.9279 119.989 23.9279C119.384 23.9279 118.9 24.1489 118.546 24.591C118.202 25.0239 118.034 25.6133 118.034 26.3594V26.4054H121.972ZM128.835 33.6169C128.676 33.6169 128.537 33.5617 128.416 33.4512C128.304 33.3314 128.248 33.1933 128.248 33.0367V17.84C128.248 17.6742 128.304 17.5361 128.416 17.4255C128.537 17.315 128.676 17.2598 128.835 17.2598H131.581C131.749 17.2598 131.888 17.315 132 17.4255C132.112 17.5361 132.168 17.6742 132.168 17.84V33.0367C132.168 33.2025 132.112 33.3406 132 33.4512C131.888 33.5617 131.749 33.6169 131.581 33.6169H128.835Z" fill="black"/>
<path d="M135.38 33.6169C135.222 33.6169 135.082 33.5617 134.961 33.4512C134.849 33.3314 134.793 33.1933 134.793 33.0367V30.1171C134.793 29.9513 134.849 29.8132 134.961 29.7026C135.082 29.5921 135.222 29.5369 135.38 29.5369H138.341C138.508 29.5369 138.648 29.5921 138.76 29.7026C138.872 29.8132 138.927 29.9513 138.927 30.1171V33.0459C138.927 33.2025 138.872 33.3406 138.76 33.4604C138.648 33.5709 138.508 33.6262 138.341 33.6262H135.38V33.6169Z" fill="#2F80ED"/>
<path d="M5.42826 16.2835C5.42826 9.3851 11.08 3.79456 18.0538 3.79456H24.7762C31.6942 3.79456 37.2993 9.33904 37.2993 16.1822V34.6945C37.2993 35.1274 36.9455 35.4774 36.5079 35.4774H18.3517C11.2103 35.4774 5.41895 29.7487 5.41895 22.6845V16.2835H5.42826Z" fill="#2F80ED"/>
<path fill-rule="evenodd" clip-rule="evenodd" d="M15.1675 12.1758C15.1675 10.7482 16.3407 9.58777 17.7838 9.58777H25.3908C26.834 9.58777 28.0072 10.7482 28.0072 12.1758V27.2251C28.0072 28.6527 26.834 29.8132 25.3908 29.8132H17.7838C16.3407 29.8132 15.1675 28.6527 15.1675 27.2251V12.1758ZM17.7838 10.9969C17.1321 10.9969 16.592 11.5219 16.592 12.1758V27.2251C16.592 27.8698 17.1228 28.404 17.7838 28.404H25.3908C26.0426 28.404 26.5826 27.8791 26.5826 27.2251V12.1758C26.5826 11.5311 26.0519 10.9969 25.3908 10.9969H17.7838Z" fill="white"/>
<path fill-rule="evenodd" clip-rule="evenodd" d="M18.7335 9.58777C18.3425 9.58777 18.0166 9.90091 18.0166 10.2969V11.2364C18.0166 12.1482 18.7615 12.885 19.6832 12.885H23.4821C24.4039 12.885 25.1487 12.1482 25.1487 11.2364V10.2969C25.1487 9.91012 24.8322 9.58777 24.4318 9.58777H18.7335Z" fill="white"/>
</svg>
