<svg width="175" height="136" viewBox="0 0 175 136" fill="none" xmlns="http://www.w3.org/2000/svg">
<path d="M23.3374 107.519C23.1072 107.519 22.904 107.437 22.7279 107.275C22.5654 107.099 22.4841 106.896 22.4841 106.665V84.669C22.4841 84.4252 22.5654 84.222 22.7279 84.0595C22.904 83.8969 23.1072 83.8157 23.3374 83.8157H27.8749C28.1187 83.8157 28.3219 83.8969 28.4844 84.0595C28.6605 84.222 28.7553 84.4252 28.7553 84.669V106.679C28.7553 106.923 28.6605 107.126 28.4844 107.289C28.3219 107.451 28.1187 107.532 27.8749 107.532H23.3374V107.519ZM33.9564 107.519C33.7126 107.519 33.5095 107.437 33.3469 107.275C33.1844 107.112 33.1031 106.909 33.1031 106.665V90.7641C33.1031 90.5202 33.1844 90.3171 33.3469 90.1545C33.5095 89.992 33.7126 89.9107 33.9564 89.9107H37.8437C38.0875 89.9107 38.2907 89.992 38.4532 90.1545C38.6293 90.3171 38.7241 90.5202 38.7241 90.7641V92.0508C39.3336 91.3058 40.1057 90.7099 41.0538 90.2629C42.029 89.8159 43.1126 89.5857 44.3316 89.5857C46.3227 89.5857 47.9345 90.2629 49.1806 91.6174C50.4267 92.9447 51.0498 94.8274 51.0498 97.2384V106.693C51.0498 106.923 50.9685 107.126 50.806 107.302C50.6434 107.465 50.4402 107.546 50.1964 107.546H45.9299C45.6996 107.546 45.4965 107.465 45.3204 107.302C45.1578 107.126 45.0766 106.923 45.0766 106.693V97.4551C45.0766 96.3986 44.8192 95.5859 44.291 95.0171C43.7763 94.4347 43.0313 94.1367 42.0561 94.1367C41.108 94.1367 40.363 94.4347 39.8213 95.0171C39.2795 95.5859 39.0086 96.3986 39.0086 97.4551V106.693C39.0086 106.923 38.9273 107.126 38.7648 107.302C38.6022 107.465 38.3991 107.546 38.1553 107.546H33.9564V107.519ZM63.6734 107.519C59.0005 107.519 56.6572 105.297 56.6572 100.855V94.3534H54.016C53.7722 94.3534 53.5555 94.2721 53.3659 94.1096C53.2034 93.947 53.1221 93.7439 53.1221 93.5001V90.7641C53.1221 90.5202 53.2034 90.3171 53.3659 90.1545C53.542 89.992 53.7587 89.9107 54.016 89.9107H56.6572V84.3168C56.6572 84.073 56.7385 83.8698 56.901 83.7073C57.0771 83.5448 57.2803 83.4635 57.5105 83.4635H61.4385C61.6823 83.4635 61.8855 83.5448 62.048 83.7073C62.2105 83.8698 62.2918 84.073 62.2918 84.3168V89.9107H66.5177C66.7615 89.9107 66.9647 89.992 67.1272 90.1545C67.3033 90.3171 67.3981 90.5202 67.3981 90.7641V93.5001C67.3981 93.7439 67.3033 93.947 67.1272 94.1096C66.9647 94.2721 66.7615 94.3534 66.5177 94.3534H62.2918V100.381C62.2918 102.047 62.9419 102.886 64.2151 102.886H66.8157C67.0595 102.886 67.2627 102.968 67.4252 103.13C67.5877 103.293 67.669 103.496 67.669 103.74V106.693C67.669 106.923 67.5877 107.126 67.4252 107.302C67.2627 107.465 67.0595 107.546 66.8157 107.546H63.6734V107.519ZM78.5995 107.857C75.8906 107.857 73.7505 107.126 72.2065 105.663C70.6624 104.2 69.8362 102.06 69.7684 99.2701V98.0782C69.8632 95.4099 70.6895 93.3375 72.2336 91.8476C73.8183 90.3306 75.9177 89.5721 78.5724 89.5721C80.4958 89.5721 82.1076 89.9649 83.4214 90.7641C84.7488 91.5361 85.7511 92.5926 86.4012 93.947C87.0785 95.3015 87.4171 96.8591 87.4171 98.6199V99.4326C87.4171 99.6629 87.3358 99.866 87.1733 100.042C87.0107 100.205 86.8076 100.286 86.5638 100.286H75.7281V100.53C75.7687 101.586 76.0261 102.453 76.5137 103.103C77.0013 103.753 77.6785 104.078 78.5724 104.078C79.1413 104.078 79.6018 103.97 79.954 103.74C80.3197 103.496 80.6448 103.198 80.9292 102.859C81.1324 102.616 81.2949 102.467 81.4033 102.426C81.5387 102.358 81.7419 102.318 82.0128 102.318H86.2116C86.4148 102.318 86.5909 102.385 86.7263 102.521C86.8888 102.629 86.9701 102.792 86.9701 102.995C86.9701 103.577 86.6315 104.255 85.9543 105.027C85.3041 105.799 84.3425 106.462 83.0828 107.031C81.7961 107.573 80.3062 107.857 78.5995 107.857ZM81.4439 96.9269V96.8591C81.4439 95.7485 81.1866 94.8816 80.6583 94.2586C80.1572 93.6084 79.4664 93.2834 78.5589 93.2834C77.6785 93.2834 76.9742 93.6084 76.4595 94.2586C75.9583 94.8952 75.7145 95.762 75.7145 96.8591V96.9269H81.4439ZM91.4263 107.519C91.1825 107.519 90.9793 107.437 90.8168 107.275C90.6543 107.112 90.573 106.909 90.573 106.665V90.7641C90.573 90.5202 90.6543 90.3171 90.8168 90.1545C90.9793 89.992 91.1825 89.9107 91.4263 89.9107H95.3271C95.571 89.9107 95.7741 90.0056 95.9367 90.1816C96.1127 90.3442 96.2076 90.5338 96.2076 90.7505V92.105C97.4537 90.6422 99.1196 89.9107 101.219 89.9107H102.709C102.953 89.9107 103.156 89.992 103.318 90.1545C103.481 90.3171 103.562 90.5202 103.562 90.7641V94.2586C103.562 94.4888 103.481 94.692 103.318 94.8681C103.156 95.0306 102.953 95.1119 102.709 95.1119H99.4176C98.4966 95.1119 97.7652 95.3692 97.2505 95.8975C96.7493 96.3986 96.5055 97.1029 96.5055 98.0375V106.706C96.5055 106.95 96.4107 107.153 96.2346 107.316C96.0721 107.478 95.8689 107.559 95.6251 107.559H91.4263V107.519ZM113.883 107.857C111.337 107.857 109.265 107.18 107.68 105.826C106.095 104.444 105.255 102.548 105.133 100.11L105.106 98.7554L105.133 97.3738C105.228 94.9358 106.054 93.026 107.639 91.658C109.237 90.2765 111.323 89.5992 113.87 89.5992C115.793 89.5992 117.405 89.9514 118.719 90.6557C120.046 91.3329 121.035 92.1592 121.671 93.1208C122.322 94.0689 122.674 94.9358 122.728 95.7214C122.755 95.9517 122.674 96.1548 122.484 96.3309C122.322 96.4934 122.118 96.5747 121.875 96.5747H117.567C117.324 96.5747 117.134 96.5205 116.999 96.4122C116.863 96.3038 116.741 96.1277 116.619 95.8975C116.348 95.1931 115.996 94.7055 115.563 94.4076C115.156 94.1096 114.628 93.9741 113.965 93.9741C112.109 93.9741 111.147 95.1661 111.093 97.5635L111.066 98.8502L111.093 99.9609C111.134 101.18 111.391 102.087 111.879 102.67C112.38 103.239 113.071 103.51 113.978 103.51C114.682 103.51 115.224 103.361 115.631 103.076C116.037 102.792 116.362 102.291 116.606 101.586C116.714 101.356 116.85 101.193 116.985 101.072C117.12 100.95 117.31 100.909 117.554 100.909H121.861C122.091 100.909 122.281 100.99 122.43 101.153C122.606 101.288 122.701 101.464 122.701 101.695C122.701 102.412 122.389 103.266 121.753 104.241C121.143 105.216 120.168 106.069 118.841 106.814C117.527 107.505 115.861 107.857 113.883 107.857ZM133.889 107.857C131.18 107.857 129.04 107.126 127.496 105.663C125.952 104.2 125.125 102.06 125.058 99.2701V98.0782C125.152 95.4099 125.979 93.3375 127.523 91.8476C129.107 90.3306 131.207 89.5721 133.862 89.5721C135.785 89.5721 137.397 89.9649 138.711 90.7641C140.038 91.5361 141.04 92.5926 141.69 93.947C142.368 95.3015 142.706 96.8591 142.706 98.6199V99.4326C142.706 99.6629 142.625 99.866 142.462 100.042C142.3 100.205 142.097 100.286 141.853 100.286H131.017V100.53C131.058 101.586 131.315 102.453 131.803 103.103C132.29 103.753 132.968 104.078 133.862 104.078C134.43 104.078 134.891 103.97 135.243 103.74C135.609 103.496 135.934 103.198 136.218 102.859C136.422 102.616 136.584 102.467 136.692 102.426C136.828 102.358 137.031 102.318 137.302 102.318H141.501C141.704 102.318 141.88 102.385 142.015 102.521C142.178 102.629 142.259 102.792 142.259 102.995C142.259 103.577 141.921 104.255 141.243 105.027C140.593 105.799 139.632 106.462 138.358 107.031C137.085 107.573 135.595 107.857 133.889 107.857ZM136.733 96.9269V96.8591C136.733 95.7485 136.476 94.8816 135.947 94.2586C135.446 93.6084 134.756 93.2834 133.848 93.2834C132.968 93.2834 132.263 93.6084 131.749 94.2586C131.248 94.8952 131.004 95.762 131.004 96.8591V96.9269H136.733ZM146.715 107.519C146.485 107.519 146.282 107.437 146.106 107.275C145.943 107.099 145.862 106.896 145.862 106.665V84.3168C145.862 84.073 145.943 83.8698 146.106 83.7073C146.282 83.5448 146.485 83.4635 146.715 83.4635H150.711C150.955 83.4635 151.158 83.5448 151.321 83.7073C151.483 83.8698 151.564 84.073 151.564 84.3168V106.665C151.564 106.909 151.483 107.112 151.321 107.275C151.158 107.437 150.955 107.519 150.711 107.519H146.715Z" fill="#454F63"/>
<path d="M156.237 107.519C156.007 107.519 155.804 107.438 155.628 107.275C155.465 107.099 155.384 106.896 155.384 106.666V102.358C155.384 102.115 155.465 101.911 155.628 101.749C155.804 101.586 156.007 101.505 156.237 101.505H160.545C160.788 101.505 160.992 101.586 161.154 101.749C161.317 101.911 161.398 102.115 161.398 102.358V106.666C161.398 106.896 161.317 107.099 161.154 107.275C160.992 107.438 160.788 107.519 160.545 107.519H156.237Z" fill="#454F63"/>
<path d="M85.1822 37.737H78.4099C76.771 37.737 75.4436 36.4096 75.4436 34.7707V34.3508H75.0373C73.8724 34.3508 72.9243 35.299 72.9243 36.4638V63.5395C72.9243 64.7043 73.8724 65.6525 75.0373 65.6525H88.5819C89.7467 65.6525 90.6949 64.7043 90.6949 63.5395V36.4638C90.6949 35.299 89.7467 34.3508 88.5819 34.3508H88.162V34.7707C88.1485 36.4096 86.8211 37.737 85.1822 37.737Z" fill="#454F63"/>
<path d="M87.4983 21.3749H75.5249C63.1044 21.3749 53.0408 31.4385 53.0408 43.859V55.3719C53.0408 68.0903 63.3482 78.3978 76.0666 78.3978H108.384C109.156 78.3978 109.793 77.7747 109.793 76.9891V43.6829C109.793 31.3573 99.8104 21.3749 87.4983 21.3749ZM93.2277 63.5393C93.2277 66.1128 91.1418 68.1987 88.5683 68.1987H75.0372C72.4638 68.1987 70.3779 66.1128 70.3779 63.5393V36.4636C70.3779 33.8901 72.4638 31.8042 75.0372 31.8042H76.7303H86.8888H88.5819C91.1554 31.8042 93.2412 33.8901 93.2412 36.4636V63.5393H93.2277Z" fill="#454F63"/>
</svg>
